<svg width="25" height="25" viewBox="0 0 25 25" fill="none" xmlns="http://www.w3.org/2000/svg">
<mask id="mask0_25682_309762" style="mask-type:alpha" maskUnits="userSpaceOnUse" x="1" y="1" width="23" height="23">
<rect x="1.98438" y="1.5" width="22" height="22" fill="#39E29D"/>
</mask>
<g mask="url(#mask0_25682_309762)">
<path d="M12.0554 2.71739C12.3667 1.82183 13.6333 1.82183 13.9446 2.71739L15.5929 7.45943C15.7302 7.8545 16.0989 8.12237 16.5171 8.1309L21.5364 8.23318C22.4843 8.2525 22.8757 9.45704 22.1202 10.0298L18.1196 13.0629C17.7863 13.3156 17.6455 13.749 17.7666 14.1493L19.2204 18.9546C19.4949 19.8621 18.4703 20.6065 17.692 20.065L13.5712 17.1975C13.2279 16.9586 12.7721 16.9586 12.4288 17.1975L8.30799 20.065C7.52975 20.6065 6.5051 19.8621 6.77965 18.9546L8.23342 14.1493C8.35454 13.749 8.21371 13.3156 7.88042 13.0629L3.87983 10.0298C3.12429 9.45704 3.51567 8.2525 4.4636 8.23318L9.48291 8.1309C9.90108 8.12237 10.2698 7.8545 10.4071 7.45943L12.0554 2.71739Z" fill="#39E29D"/>
</g>
</svg>
